<svg width="65" height="32" viewBox="0 0 65 32" fill="none" xmlns="http://www.w3.org/2000/svg">
<path fill-rule="evenodd" clip-rule="evenodd" d="M36.7415 10.1224C36.7415 12.557 34.7679 14.5306 32.3333 14.5306C29.8988 14.5306 27.9252 12.557 27.9252 10.1224C27.9252 7.68786 29.8988 5.71426 32.3333 5.71426C34.7679 5.71426 36.7415 7.68786 36.7415 10.1224ZM38.2109 10.1224C38.2109 13.3685 35.5794 16 32.3333 16C29.0872 16 26.4558 13.3685 26.4558 10.1224C26.4558 6.87634 29.0872 4.24487 32.3333 4.24487C35.5794 4.24487 38.2109 6.87634 38.2109 10.1224ZM39.6803 23.102C39.6803 23.5665 39.5462 23.8911 39.3244 24.1593C39.0816 24.453 38.6699 24.7521 38.0182 25.0146C36.6887 25.5503 34.7129 25.7959 32.3333 25.7959C29.9537 25.7959 27.9779 25.5503 26.6484 25.0146C25.9968 24.7521 25.5851 24.453 25.3422 24.1593C25.1204 23.8911 24.9864 23.5665 24.9864 23.102C24.9864 22.6375 25.1204 22.313 25.3422 22.0447C25.5851 21.7511 25.9968 21.452 26.6484 21.1894C27.9779 20.6537 29.9537 20.4081 32.3333 20.4081C34.7129 20.4081 36.6887 20.6537 38.0182 21.1894C38.6699 21.452 39.0816 21.7511 39.3244 22.0447C39.5462 22.313 39.6803 22.6375 39.6803 23.102ZM41.1497 23.102C41.1497 26.2857 37.2024 27.2653 32.3333 27.2653C27.4642 27.2653 23.517 26.2857 23.517 23.102C23.517 19.9183 27.4642 18.9388 32.3333 18.9388C37.2024 18.9388 41.1497 19.9183 41.1497 23.102Z" fill="#65676E"/>
</svg>
